PathFileType	3	(X/Y/Z)	walking_2__fused_aligned.trc
DataRate	CameraRate	NumFrames	NumMarkers	Units	OrigDataRate	OrigDataStartFrame	OrigNumFrames
100.0	100.0	15	19	mm	100.0	233	6270
Frame#	Time	pelvis			neck			head			hip_left			hip_right			knee_left			knee_right			ankle_left			ankle_right			heel_left			heel_right			toe_left			toe_right			shoulder_left			shoulder_right			elbow_left			elbow_right			wrist_left			wrist_right			
		X1	Y1	Z1	X2	Y2	Z2	X3	Y3	Z3	X4	Y4	Z4	X5	Y5	Z5	X6	Y6	Z6	X7	Y7	Z7	X8	Y8	Z8	X9	Y9	Z9	X10	Y10	Z10	X11	Y11	Z11	X12	Y12	Z12	X13	Y13	Z13	X14	Y14	Z14	X15	Y15	Z15	X16	Y16	Z16	X17	Y17	Z17	X18	Y18	Z18	X19	Y19	Z19	
233	2.32000	-24.226069	949.566175	155.641121	-49.413781	1506.670134	233.609343	-46.306685	1602.337111	372.503611	53.434189	948.502137	158.303589	-101.886447	950.630225	152.978628	95.588737	542.749127	320.124954	-139.086776	517.652664	206.717824	113.608499	219.428982	132.242418	-149.072106	110.968736	120.309406	112.367896	196.712177	86.676375	-147.014604	61.356501	83.609006	108.027197	88.741088	238.363949	-165.980616	53.784322	308.129863	131.266484	1480.988846	205.853589	-227.149339	1438.388073	214.338061	195.071360	1198.418554	205.103767	-250.590847	1147.534473	225.523116	72.065811	1119.458478	391.572897	-115.712058	1091.379009	427.657812
234	2.33000	-23.466023	949.318076	156.124089	-48.097188	1506.227801	234.047974	-44.325410	1601.591555	373.324026	54.211356	948.263135	158.819578	-101.143534	950.373031	153.428575	95.715067	543.222202	323.900501	-139.331332	516.819052	203.227825	113.611747	216.509210	143.992076	-149.319498	112.952818	110.616422	112.513294	192.661124	99.155742	-147.165558	64.088951	73.410333	107.014992	89.493518	253.321411	-166.481650	53.799249	296.577702	132.333507	1480.057564	204.885709	-225.913277	1438.225318	215.106422	196.375444	1197.367913	202.189911	-250.272112	1147.384277	225.139222	78.539407	1113.491751	386.467108	-118.376365	1086.274423	424.678062
235	2.34000	-22.705978	949.069978	156.607058	-46.780594	1505.785469	234.486606	-42.344135	1600.845999	374.144442	54.988522	948.024133	159.335567	-100.400621	950.115837	153.878523	95.841396	543.695277	327.676048	-139.575889	515.985439	199.737826	113.614996	213.589439	155.741734	-149.566890	114.936901	100.923438	112.658692	188.610071	111.635109	-147.316513	66.821401	63.211660	106.002788	90.245949	268.278872	-166.982684	53.814176	285.025542	133.400531	1479.126282	203.917829	-224.677214	1438.062563	215.874783	197.679528	1196.317273	199.276054	-249.953377	1147.234081	224.755329	85.013003	1107.525024	381.361319	-121.040672	1081.169836	421.698313
236	2.35000	-21.945932	948.821879	157.090026	-45.464001	1505.343136	234.925238	-40.362861	1600.100443	374.964857	55.765688	947.785131	159.851557	-99.657707	949.858642	154.328470	95.967726	544.168353	331.451595	-139.820445	515.151826	196.247827	113.618244	210.669668	167.491393	-149.814282	116.920983	91.230454	112.804091	184.559018	124.114476	-147.467467	69.553851	53.012987	104.990584	90.998379	283.236334	-167.483718	53.829103	273.473381	134.467555	1478.195001	202.949949	-223.441152	1437.899808	216.643143	198.983613	1195.266633	196.362197	-249.634642	1147.083885	224.371436	91.486599	1101.558297	376.255530	-123.704978	1076.065249	418.718563
237	2.36000	-21.185887	948.573781	157.572994	-44.147408	1504.900804	235.363870	-38.381586	1599.354887	375.785273	56.542854	947.546129	160.367546	-98.914794	949.601448	154.778417	96.094056	544.641428	335.227143	-140.065002	514.318213	192.757829	113.621492	207.749897	179.241051	-150.061675	118.905066	81.537471	112.949489	180.507965	136.593842	-147.618421	72.286301	42.814314	103.978379	91.750809	298.193796	-167.984751	53.844030	261.921221	135.534579	1477.263719	201.982069	-222.205090	1437.737053	217.411504	200.287697	1194.215993	193.448341	-249.315907	1146.933688	223.987543	97.960195	1095.591571	371.149741	-126.369285	1070.960662	415.738814
238	2.37000	-20.425841	948.325682	158.055963	-42.830815	1504.458472	235.802502	-36.400311	1598.609331	376.605688	57.320020	947.307127	160.883535	-98.171881	949.344254	155.228365	96.220385	545.114503	339.002690	-140.309558	513.484600	189.267830	113.624741	204.830126	190.990709	-150.309067	120.889148	71.844487	113.094887	176.456912	149.073209	-147.769376	75.018751	32.615641	102.966175	92.503240	313.151258	-168.485785	53.858956	250.369060	136.601603	1476.332438	201.014189	-220.969027	1437.574298	218.179865	201.591781	1193.165353	190.534484	-248.997172	1146.783492	223.603650	104.433791	1089.624844	366.043952	-129.033592	1065.856075	412.759064
239	2.38000	-19.665795	948.077583	158.538931	-41.514222	1504.016139	236.241134	-34.419037	1597.863775	377.426104	58.097186	947.068125	161.399524	-97.428967	949.087060	155.678312	96.346715	545.587579	342.778237	-140.554115	512.650987	185.777831	113.627989	201.910355	202.740368	-150.556459	122.873231	62.151503	113.240286	172.405859	161.552576	-147.920330	77.751201	22.416968	101.953971	93.255670	328.108720	-168.986819	53.873883	238.816900	137.668626	1475.401156	200.046309	-219.732965	1437.411543	218.948226	202.895865	1192.114713	187.620627	-248.678437	1146.633296	223.219757	110.907387	1083.658117	360.938163	-131.697899	1060.751488	409.779314
240	2.39000	-18.905750	947.829485	159.021899	-40.197629	1503.573807	236.679766	-32.437762	1597.118219	378.246519	58.874352	946.829123	161.915513	-96.686054	948.829866	156.128259	96.473045	546.060654	346.553784	-140.798672	511.817374	182.287832	113.631237	198.990583	214.490026	-150.803851	124.857313	52.458519	113.385684	168.354806	174.031943	-148.071285	80.483651	12.218295	100.941767	94.008101	343.066181	-169.487853	53.888810	227.264739	138.735650	1474.469874	199.078429	-218.496903	1437.248788	219.716586	204.199949	1191.064073	184.706771	-248.359702	1146.483100	222.835863	117.380982	1077.691390	355.832374	-134.362206	1055.646901	406.799565
241	2.40000	-18.145704	947.581386	159.504868	-38.881036	1503.131475	237.118398	-30.456487	1596.372663	379.066935	59.651518	946.590120	162.431502	-95.943141	948.572671	156.578207	96.599374	546.533729	350.329332	-141.043228	510.983761	178.797834	113.634485	196.070812	226.239684	-151.051243	126.841396	42.765536	113.531082	164.303754	186.511310	-148.222239	83.216101	2.019621	99.929562	94.760531	358.023643	-169.988887	53.903737	215.712579	139.802674	1473.538593	198.110549	-217.260840	1437.086033	220.484947	205.504034	1190.013433	181.792914	-248.040967	1146.332904	222.451970	123.854578	1071.724664	350.726584	-137.026513	1050.542314	403.819815
242	2.41000	-17.385659	947.333288	159.987836	-37.564443	1502.689142	237.557030	-28.475212	1595.627107	379.887350	60.428685	946.351118	162.947491	-95.200228	948.315477	157.028154	96.725704	547.006804	354.104879	-141.287785	510.150149	175.307835	113.637734	193.151041	237.989343	-151.298635	128.825478	33.072552	113.676481	160.252701	198.990677	-148.373194	85.948552	-8.179052	98.917358	95.512962	372.981105	-170.489921	53.918664	204.160419	140.869698	1472.607311	197.142669	-216.024778	1436.923277	221.253308	206.808118	1188.962793	178.879057	-247.722232	1146.182708	222.068077	130.328174	1065.757937	345.620795	-139.690820	1045.437727	400.840066
243	2.42000	-16.625613	947.085189	160.470804	-36.247850	1502.246810	237.995661	-26.493938	1594.881551	380.707766	61.205851	946.112116	163.463481	-94.457314	948.058283	157.478101	96.852033	547.479880	357.880426	-141.532341	509.316536	171.817836	113.640982	190.231270	249.739001	-151.546027	130.809561	23.379568	113.821879	156.201648	211.470043	-148.524148	88.681002	-18.377725	97.905154	96.265392	387.938567	-170.990954	53.933591	192.608258	141.936722	1471.676029	196.174789	-214.788716	1436.760522	222.021669	208.112202	1187.912153	175.965201	-247.403497	1146.032512	221.684184	136.801770	1059.791210	340.515006	-142.355127	1040.333141	397.860316
244	2.43000	-14.978366	946.622895	160.918415	-34.160149	1501.576190	238.531380	-24.041967	1593.953781	381.556084	62.813375	945.759569	164.040178	-92.770319	947.486240	157.796630	97.229663	547.371770	359.452774	-141.174632	508.519769	170.031752	114.524155	186.526922	258.997797	-151.210526	133.657949	15.483053	114.967056	151.265922	221.438751	-148.014717	92.473302	-26.740460	97.960176	96.524955	400.763226	-171.135253	54.522565	182.112549	143.753072	1470.439995	195.670696	-212.646149	1436.354453	222.246442	210.286473	1186.703822	173.835428	-246.363332	1145.704170	220.356298	145.200596	1053.664316	335.393629	-146.166702	1034.505759	393.552964
245	2.44000	-13.331118	946.160601	161.366026	-32.072447	1500.905571	239.067099	-21.589997	1593.026011	382.404402	64.420900	945.407021	164.616876	-91.083324	946.914198	158.115158	97.607292	547.263659	361.025122	-140.816923	507.723002	168.245667	115.407328	182.822575	268.256593	-150.875025	136.506338	7.586537	116.112233	146.330196	231.407458	-147.505286	96.265603	-35.103194	98.015199	96.784518	413.587885	-171.279552	55.111539	171.616841	145.569423	1469.203960	195.166604	-210.503582	1435.948384	222.471215	212.460744	1185.495491	171.705656	-245.323166	1145.375828	219.028413	153.599421	1047.537421	330.272251	-149.978276	1028.678378	389.245612
246	2.45000	-11.683871	945.698307	161.813637	-29.984746	1500.234952	239.602818	-19.138026	1592.098241	383.252721	66.028424	945.054473	165.193573	-89.396328	946.342155	158.433686	97.984921	547.155549	362.597470	-140.459214	506.926235	166.459583	116.290502	179.118227	277.515389	-150.539524	139.354726	-0.309978	117.257410	141.394470	241.376166	-146.995854	100.057903	-43.465929	98.070222	97.044081	426.412544	-171.423850	55.700514	161.121132	147.385773	1467.967925	194.662512	-208.361015	1435.542315	222.695989	214.635015	1184.287160	169.575884	-244.283001	1145.047487	217.700527	161.998246	1041.410527	325.150874	-153.789851	1022.850997	384.938259
247	2.46000	-10.036623	945.236012	162.261248	-27.897044	1499.564332	240.138537	-16.686056	1591.170471	384.101039	67.635948	944.701925	165.770271	-87.709333	945.770112	158.752214	98.362551	547.047439	364.169818	-140.101505	506.129469	164.673498	117.173675	175.413879	286.774186	-150.204023	142.203115	-8.206493	118.402587	136.458744	251.344873	-146.486423	103.850204	-51.828664	98.125244	97.303645	439.237202	-171.568149	56.289488	150.625424	149.202124	1466.731890	194.158419	-206.218448	1435.136246	222.920762	216.809286	1183.078829	167.446112	-243.242835	1144.719145	216.372642	170.397072	1035.283633	320.029496	-157.601426	1017.023615	380.630907
